# xmcd
#
# Track frame offsets:
#	150
#	9752
#	29417
#	45687
#	60345
#	79822
#	98070
#	108932
#	123020
#	136905
#	153547
#	170840
#	187700
#	204320
#
# Disc length: 2949 seconds
#
# Revision: 0
# Processed by: cddbd v1.4PL0 Copyright (c) Steve Scherf et al.
# Submitted via: dBpowerAMP V4.0
#
DISCID=a30b830e
DTITLE=Guy Marchand - Demain j'arrete
DYEAR=1900
DGENRE=
TTITLE0=Je voudrais vivre avant de mourir
TTITLE1=Dans ma vie manque une fille
TTITLE2=Facile a aimer
TTITLE3=J'ai bien le droit d'avoir le blues
TTITLE4=Night and day
TTITLE5=Je me concentre sur vous
TTITLE6=Le sam'di soir
TTITLE7=Rien c'est tout ou rien
TTITLE8=High Guy Rythm
TTITLE9=Le rythme de l'Amour
TTITLE10=Wave
TTITLE11=Un autre pour la route
TTITLE12=Moi je l'aimais
TTITLE13=Amor de mis Amores
EXTD=
EXTT0=
EXTT1=
EXTT2=
EXTT3=
EXTT4=
EXTT5=
EXTT6=
EXTT7=
EXTT8=
EXTT9=
EXTT10=
EXTT11=
EXTT12=
EXTT13=
PLAYORDER=
